<svg preserveAspectRatio="none" overflow="visible" style="display: block;" width="19.2265" height="14.9344" viewBox="0 0 19.2265 14.9344" fill="none" xmlns="http://www.w3.org/2000/svg">
<g id="Mask group">
<mask id="mask0_0_7" style="mask-type:luminance" maskUnits="userSpaceOnUse" x="0" y="0" width="20" height="15">
<g id="Group">
<path id="Vector" d="M0.000101089 0H19.2265V14.9344H0.000101089V0Z" fill="white"/>
</g>
</mask>
<g mask="url(#mask0_0_7)">
<path id="Vector_2" fill-rule="evenodd" clip-rule="evenodd" d="M17.3694 11.3512L17.3478 11.3C17.1463 10.8293 16.8108 10.4282 16.3831 10.1467C15.9553 9.86516 15.4543 9.71567 14.9422 9.71681L14.7918 9.72081C14.3032 9.74759 13.8322 9.91224 13.4334 10.1957C13.0345 10.4792 12.7242 10.8698 12.5382 11.3224L12.5174 11.3736H11.9926L11.9894 7.55761H18.1206L18.1214 11.3512H17.3694ZM14.9478 13.796C14.5587 13.795 14.1859 13.6395 13.9112 13.3638C13.6366 13.0881 13.4826 12.7147 13.483 12.3256C13.483 11.5152 14.1406 10.8544 14.9478 10.8544C15.7558 10.8544 16.4126 11.5152 16.4126 12.3264C16.4128 12.7154 16.2587 13.0886 15.9841 13.3641C15.7095 13.6396 15.3368 13.795 14.9478 13.796ZM11.9846 3.36001L15.595 3.36081L17.659 6.52721H11.9886L11.9846 3.36001ZM6.92781 11.336L6.90621 11.2864C6.7025 10.8193 6.36654 10.422 5.93976 10.1434C5.51298 9.86492 5.01403 9.71738 4.50441 9.71899C3.99479 9.72061 3.49679 9.87132 3.07178 10.1525C2.64677 10.4338 2.31335 10.8332 2.11261 11.3016L2.09101 11.352H1.08941V1.11201H10.859V1.19521L10.8702 11.3352L6.92861 11.3344L6.92781 11.336ZM4.51261 13.7968C4.12347 13.7958 3.75066 13.6403 3.47603 13.3646C3.20139 13.0889 3.04738 12.7155 3.04781 12.3264C3.04781 11.516 3.70381 10.8552 4.51261 10.8552C5.32061 10.8552 5.97661 11.516 5.97661 12.3272C5.97661 13.1376 5.32061 13.7968 4.51261 13.7968ZM19.2246 7.01281L19.2222 6.99041C19.2166 6.93521 18.8662 6.35041 16.3582 2.50881L16.3078 2.44401C16.2563 2.38676 16.1932 2.34105 16.1227 2.3099C16.0523 2.27874 15.976 2.26283 15.899 2.26321H11.9838L11.9678 0.448011C11.9425 0.321109 11.8738 0.206973 11.7735 0.125218C11.6732 0.0434618 11.5476 -0.000809399 11.4182 1.12061e-05L0.466206 0.00801121C0.388289 0.0228234 0.314436 0.0541108 0.249591 0.0997785C0.184745 0.145446 0.130404 0.20444 0.0902064 0.272811C0.0314304 0.36303 3.29639e-05 0.468336 -0.000193596 0.576011L0.0094064 12.0056C0.0558064 12.2592 0.281406 12.4488 0.545406 12.4488H1.90621L1.91101 12.5256C1.96449 13.1799 2.26153 13.7904 2.7434 14.2363C3.22528 14.6821 3.8569 14.931 4.51341 14.9336C5.16988 14.9312 5.80151 14.6823 6.28329 14.2364C6.76507 13.7905 7.06189 13.1799 7.11501 12.5256L7.11981 12.4488H12.3406L12.3462 12.5256C12.3995 13.1799 12.6964 13.7903 13.1781 14.2362C13.6599 14.6821 14.2914 14.931 14.9478 14.9336C15.6043 14.9313 16.2361 14.6826 16.7179 14.2366C17.1997 13.7907 17.4965 13.18 17.5494 12.5256L17.555 12.4488L18.779 12.4392C18.9048 12.4157 19.0185 12.3489 19.1003 12.2505C19.1821 12.152 19.2269 12.028 19.227 11.9C19.227 11.7048 19.2238 7.15761 19.2246 7.01121V7.01281Z" fill="white"/>
</g>
</g>
</svg>
